<?xml version="1.0" standalone="no"?>
<!DOCTYPE svg PUBLIC "-//W3C//DTD SVG 20010904//EN"
 "http://www.w3.org/TR/2001/REC-SVG-20010904/DTD/svg10.dtd">
<svg version="1.0" xmlns="http://www.w3.org/2000/svg"
 width="318.000000pt" height="448.000000pt" viewBox="0 0 318.000000 448.000000"
 preserveAspectRatio="xMidYMid meet">

<g transform="translate(0.000000,448.000000) scale(0.100000,-0.100000)"
fill="#fff" stroke="none">
<path d="M655 3209 c-352 -698 -641 -1276 -643 -1284 -3 -13 47 -15 382 -15
l386 0 257 515 c142 283 260 515 263 515 3 0 121 -230 263 -510 l258 -510
-285 0 c-162 0 -286 -4 -286 -9 0 -22 964 -1901 971 -1894 7 7 959 1892 959
1900 0 1 -131 4 -292 5 l-292 3 -641 1260 c-352 693 -645 1268 -650 1277 -8
13 -145 -251 -650 -1253z m1934 -1306 c0 -5 -84 -176 -188 -382 l-187 -373
-190 372 c-104 205 -190 376 -192 381 -2 5 164 9 377 9 210 0 381 -3 380 -7z"/>
</g>
</svg>
